<?xml version="1.0" encoding="utf-8"?>
<!-- Generator: Adobe Illustrator 26.0.2, SVG Export Plug-In . SVG Version: 6.00 Build 0)  -->
<svg version="1.1" xmlns="http://www.w3.org/2000/svg" xmlns:xlink="http://www.w3.org/1999/xlink" x="0px" y="0px"
	 viewBox="0 0 1280 1024" style="enable-background:new 0 0 1280 1024;" xml:space="preserve">
<style type="text/css">
	.st0{display:none;}
	.st1{display:inline;}
	.st2{fill:#FF0000;}
	.st3{fill:none;stroke:#000000;stroke-width:2;stroke-miterlimit:10;}
	.st4{fill:none;stroke:#000000;stroke-width:5;stroke-miterlimit:10;}
</style>
<g id="Capa_1">
</g>
<g id="Capa_2">
</g>
<g id="Capa_3">
</g>
<g id="Capa_10">
</g>
<g id="Capa_6">
	<g id="Capa_5" class="st0">
		<g class="st1">
			<g>
				<path d="M606.11,552.12c-0.32-0.26-0.65-0.52-0.97-0.77c-0.15-0.12-0.29-0.24-0.44-0.35c-0.08-0.06-0.15-0.13-0.26-0.13
					c-0.14,0-0.24,0.11-0.34,0.18c-0.13,0.09-0.28,0.17-0.43,0.24c-0.3,0.14-0.62,0.24-0.92,0.36c-0.56,0.22-1.04,0.53-1.38,1.03
					c-0.38,0.56-0.4,1.27-0.79,1.82c0.09,0.04,0.18,0.08,0.27,0.12c0-0.01,0.33,0.29,0.36,0.32c0.14,0.14,0.29,0.29,0.43,0.43
					c0.29,0.29,0.57,0.57,0.86,0.86c0.14,0.14,0.35-0.08,0.21-0.21c-0.45-0.46-0.91-0.91-1.36-1.37c-0.2-0.2-0.63-0.53-0.79-0.11
					c-0.07,0.17,0.18,0.24,0.27,0.12c0.34-0.48,0.38-1.07,0.64-1.58c0.28-0.55,0.76-0.9,1.32-1.13c0.48-0.2,0.99-0.33,1.42-0.62
					c0.16-0.11,0.26-0.13,0.43,0.01c0.13,0.11,0.27,0.21,0.4,0.32c0.28,0.23,0.57,0.45,0.85,0.68
					C606.04,552.46,606.26,552.25,606.11,552.12L606.11,552.12z"/>
			</g>
		</g>
		<g class="st1">
			<g>
				<path d="M603.5,550.94c-1.05-0.75-2.24-1.32-3.5-1.6c-0.54-0.12-1.11-0.19-1.64,0.03c-0.58,0.24-1.03,0.7-1.64,0.89
					c-0.25,0.08-2.52,0.58-1.81,1.19c0.18,0.16,0.51,0.14,0.74,0.17c0.31,0.04,0.62,0.06,0.94,0.06c0.69,0.01,1.38-0.07,2.06-0.21
					c0.19-0.04,0.11-0.33-0.08-0.29c-0.55,0.11-1.11,0.18-1.67,0.2c-0.26,0.01-0.52,0-0.78-0.02c-0.16-0.01-0.31-0.02-0.47-0.04
					c-0.07-0.01-0.38-0.01-0.43-0.06c-0.17-0.2,0.36-0.37,0.53-0.43c0.2-0.07,0.41-0.12,0.61-0.17c0.42-0.1,0.81-0.22,1.18-0.45
					c0.43-0.27,0.82-0.6,1.34-0.67c0.56-0.07,1.14,0.1,1.67,0.26c1,0.31,1.94,0.79,2.79,1.4
					C603.51,551.31,603.66,551.05,603.5,550.94L603.5,550.94z"/>
			</g>
		</g>
		<g class="st1">
			<g>
				<path d="M600.3,553.19c-1.63,0.28-3.29,0.36-4.93,0.21c-1.49-0.13-3.04-0.4-4.36-1.14c-0.62-0.35-1.28-0.83-1.64-1.45
					c-0.27-0.47-0.35-1.19,0.18-1.52c0.34-0.21,0.79-0.14,1.15-0.05c0.71,0.18,1.39,0.5,2.07,0.77c0.79,0.3,1.57,0.61,2.36,0.91
					c0.18,0.07,0.26-0.22,0.08-0.29c-1.02-0.4-2.05-0.79-3.07-1.19c-0.69-0.27-1.48-0.68-2.25-0.57c-0.58,0.08-0.99,0.52-1.03,1.11
					c-0.05,0.73,0.44,1.34,0.95,1.8c1.25,1.12,2.93,1.58,4.55,1.81c2,0.29,4.03,0.24,6.02-0.11
					C600.57,553.44,600.49,553.16,600.3,553.19L600.3,553.19z"/>
			</g>
		</g>
	</g>
	<g id="Capa_4">
	</g>
</g>
<g id="Capa_7">
</g>
<g id="Capa_8">
</g>
<g id="Capa_9">
	<g>
		<g>
			<path d="M1042.43,285.8c-0.03-1-0.06-2-0.09-3.01c0-0.25-0.16-0.45-0.19-0.69c-0.01-0.04,0.01-0.09,0-0.13
				c-0.03-0.08-0.06-0.16-0.1-0.23c-0.11-0.78-0.26-1.56-0.62-2.27c0.62-2.79,1.05-5.63,1.11-8.55
				c0.21-10.29-3.83-20.64-12.92-26.07c-2.17-1.3-4.39-1.02-6.36-0.17c-4.49-3.94-9.71-7-15.31-9.39c-0.15-0.08-0.25-0.21-0.4-0.3
				l-0.04,0.09c-0.6-0.25-1.14-0.61-1.75-0.84c-5.11-1.94-8.98,2.5-9.25,7.03c-6.07-0.12-12.05,0.78-17.89,2.36
				c-2.37-2.05-5.38-3.18-8.78-2.17c-2.77,0.82-5.02,2.94-6.5,5.36c-0.61,0.99-1.57,2.5-1.54,3.63c0,0.1-0.04,0.1-0.04,0.18
				c0.1-0.07,0.38-0.12,0.53-0.19c-0.18,0.11-0.37,0.17-0.55,0.28c-0.12,0.91-0.62,0.59-0.1,0.05c-0.04,0.03-0.09,0.04-0.13,0.06
				c-3.66,2.32-4.29,5.96-3.06,8.93c-1.89,1.39-3.26,3.35-3.42,5.79c-0.23,3.3,1.21,6.11,3.42,8.19c0.49,3.88,1.28,7.71,2.67,11.39
				c1.36,3.6,4.27,5.14,7.14,5.15c0.48,0.7,1.07,1.28,1.81,1.72c1.19,3.61,2.37,7.22,3.56,10.83c0.05-0.02,0.11-0.05,0.16-0.07
				c0.24,0.61,0.33,1.25,0.59,1.86c0.8,1.84,2.16,2.89,3.7,3.38c0.83,2.49,1.66,4.97,2.49,7.46c0.7,2.11,2.28,3.54,4.14,4.45
				c0.04,0.45,0.13,0.9,0.17,1.35c0.79,8.68,11.54,9.88,14.73,1.99c0.77-1.91,1.55-3.82,2.32-5.73c2.14-0.33,4.14-1.22,5.14-3.25
				c5.48-11.19,10.96-22.38,16.45-33.57c0.84,0.03,1.62-0.18,2.42-0.43c-1.89,6.75-4.9,13.27-6.32,20.12
				c-0.31,1.49,0.02,2.86,0.47,4.14c-1.43,2.86-2.85,5.73-4.28,8.59c-4.29,8.61,8.64,16.22,12.95,7.57
				c4.04-8.12,8.09-16.24,12.13-24.36c1.14-2.29,0.83-4.33,0.04-6.15l0.43-0.56C1042.08,288.42,1042.43,287.16,1042.43,285.8z"/>
			<path d="M961.78,250.61c-0.07,0.05-0.07,0.08-0.12,0.14c0.03-0.02,0.07-0.03,0.1-0.05C961.76,250.66,961.77,250.65,961.78,250.61
				z"/>
		</g>
		<path class="st2" d="M756.03,340.82c-17.6,5.19-35.6,8.24-53.72,10.61c-0.31-1.26-1.19-2.34-2.71-2.16
			c-0.27,0.03-0.53,0.1-0.8,0.13c0-0.01,0-0.01,0-0.02c-0.14,0.03-0.29,0.06-0.43,0.09c-3.16,0.39-6.27,1.07-9.42,1.53
			c-4.1,0.41-8.19,1.03-12.26,1.72c-5.25,0.9-10.47,1.03-15.77,1.4c-6.25,0.43-12.55,0.98-18.84,1.68c-0.77,0.02-1.53,0.06-2.3,0.07
			c-5.53,0.1-11.2,0.07-16.57-1.44c-5.44-1.53-10.11-4.69-14.77-7.78c-14.59-9.67-25.93-22.02-34.83-36.65
			c-0.37-1.26-0.99-2.44-1.95-3.37c-1.11-1.96-2.35-3.8-3.38-5.84c-0.01-0.01-0.02-0.01-0.03-0.02c0.24-0.75,0.34-1.54,0.61-2.28
			c0.67-2.19-0.98-3.42-2.72-3.49c-1.2-1.76-4.6-1.58-5.39,0.86c-1,3.07-1.7,6.13-2.13,9.33c-0.16,1.19,0.48,2.42,1.39,3.19
			c-0.13,0.49-0.27,0.99-0.4,1.48c-0.02,0.05-0.07,0.06-0.09,0.11c-0.27,2.02-0.94,3.89-1.51,5.8c-1.18,1.31-1.91,3-1.83,4.85
			c0.04,0.91,0.08,1.82,0.11,2.73c-0.48,1.88-1.01,3.75-1.37,5.66c-0.6,1.77-1.2,3.55-1.79,5.33c-0.22,0.29-0.54,0.41-0.67,0.82
			l-3.24,10.62c-0.28,0.66-0.6,1.32-1.01,1.53c-1.11,0.58-1.98,0.23-2.71-0.42c-0.05-0.05-0.11-0.1-0.16-0.15
			c-0.69-0.68-1.25-1.61-1.72-2.27c-3.43-4.76-7.99-10.12-8.52-16.18c-0.27-3.11-5.25-4.37-5.89-0.8c-0.05,0.27-0.05,0.53-0.1,0.8
			c0,0-0.01,0-0.01,0c0,0.01,0,0.01,0.01,0.02c-0.04,0.22-0.04,0.44-0.08,0.65c-0.52,0.35-1.01,0.78-1.27,1.56
			c-0.73,2.18-1.1,4.38-1.25,6.57c-1.26,0.52-2.32,1.73-2.08,3.44c0.74,5.18,2.42,10.01,4.78,14.64
			c3.25,7.92,7.78,15.42,14.77,19.35c4.61,2.59,10.01,3.34,15.31,3.9c0.34,0.55,0.8,1.06,1.61,1.3c6.53,1.92,13.4,3.58,20.17,3.33
			c0.61,0.11,1.19,0.29,1.88,0.26c0.5-0.02,0.79-0.4,1.26-0.48c2.18-0.3,4.35-0.74,6.48-1.61c0.19-0.08,0.26-0.26,0.42-0.37
			c0.45-0.05,0.89-0.07,1.34-0.12c0.31,0.1,0.49,0.36,0.88,0.35c3.23-0.11,6.32-0.87,9.41-1.66c0.25,0.12,0.32,0.37,0.64,0.43
			c13.06,2.12,25.68-3.16,38.58-4.56c12.16-1.32,23.87-3.47,35.82-6.1c5.26-1.16,10.48-2.31,15.68-3.54
			c0.57-0.02,1.11-0.13,1.68-0.12c1.78,0.02,3.12-0.59,4.25-1.42c5.6-1.47,11.17-3.04,16.61-5.21c13.57-5.4,27.4-9.04,41.61-12.33
			C761.33,345.51,759.79,339.95,756.03,340.82z"/>
		<path class="st2" d="M1131.57,262.48c3.23-2.09,0.22-7.29-3.03-5.18c-2.95,1.92-6.08,3.59-9.1,5.41c-0.03-0.2-0.05-0.4-0.08-0.6
			c-5.04,1.08-10.15,2.13-15.22,1.93c-6.25-0.26-12.44-2.63-17.29-6.59c-0.49-0.4-1.01-0.38-1.53-0.46
			c-0.06-0.06-0.12-0.12-0.17-0.19c-1.52-2.37-3.18-4.65-4.57-7.11c-1.43-2.54-2.79-5.12-4.08-7.74c-0.64-1.31-1.26-2.63-1.87-3.95
			c-0.14-0.3-0.59-1.36-0.9-2.09c-2.17-5.51-3.54-11.95-6.56-17.01c1.01-2.33,1.33-4.89,0.86-7.59c0.38-0.21,0.71-0.49,1.09-0.69
			c1.62-0.85,2.97-2.75,3.45-4.48c0.31-1,0.36-1.99,0.13-2.99c-0.04-0.9-0.35-1.73-0.8-2.52c0.94-0.69,1.98-1.25,2.91-1.95
			c1.04-0.78,1.82-2.03,1.38-3.39c-0.38-1.16-1.56-2.35-2.89-2.2c-0.49,0.05-0.99,0.11-1.48,0.16c-1.16,0.13-2.08,0.9-2.55,1.94
			c-0.89,0.65-1.83,1.2-2.73,1.83c-1.72-0.23-3.39-0.19-4.98,0.65c-1.21,0.64-2.29,1.5-3.46,2.2c-2.7-0.95-5.61-1.38-8.67-0.58
			c-2.26,0.59-4.4,1.51-6.61,2.24c-1.51,0.31-2.93,0.74-4.3,1.46c-1.27,0.48-2.6,0.78-3.85,1.3c-2.99,1.26-5.36,2.82-7.35,5.13
			c-8.65,1.14-18.15,0.98-27.19,0.74c-10.11-0.27-19.43,0.39-28.66,3.53c-0.89-0.46-1.67-1.12-2.66-1.32
			c-5.56-1.15-11.12-2.28-16.7-3.37c-1.99-0.62-3.99-0.71-5.98-0.27c-1.95,0.09-3.75,0.69-5.44,1.74l-2.53-0.54
			c-1.8-0.39-3.6-0.77-5.4-1.16c-2.75-0.59-5.41-0.94-8.27-1.26c-1.6-0.18-3.19-0.01-4.78,0.24c-28.97-5.57-58.2-10.86-87.53-14.11
			c-13-1.44-26.57-0.55-38.3,5.82c-6.45,3.5-11.96,8.63-16.12,14.65c-3.12,4.51-4.94,9.78-9.56,13.08
			c-2.39,1.71-4.44,3.73-6.15,5.95c-19.15,6.3-38.64,11.55-58.49,15.35c-5.2,0.99-10.42,2.01-15.23,3.61
			c-0.14-0.06-0.27-0.11-0.41-0.17c-0.05-0.02-0.11-0.04-0.17-0.06c-3.24-0.87-5.28-0.65-8.5-0.03c-0.94,0.18-1.8,0.66-2.67,1.09
			c-0.12-0.1-0.24-0.19-0.36-0.29c-1.6-1.29-3.17-2.2-5.3-2.2c-1.84,0-4.04,0.82-5.3,2.2c-1.31,1.43-2.29,3.31-2.2,5.3
			c0.08,1.87,0.68,4.08,2.2,5.3l2.56,2.07c-0.16,1.77-0.47,3.53,0,5.29c0.05,0.18,0.1,0.36,0.15,0.53l0.3,1.06
			c0.06,0.2,0.11,0.4,0.17,0.59c-2.19,10.26,0.33,21.64,5.1,31.43c0.62,1.62,1.42,3.27,2.54,4.93c1.16,1.73,2.31,3.45,3.47,5.18
			c6.06,8.37,15.97,12.62,25.71,9.79c7.61-0.05,15.69-1.67,24.02-3.53c17.41-3.9,34.83-7.81,52.24-11.72
			c1.93-0.05,3.93-0.26,6.05-0.86c2.28-0.68,4.55-1.35,6.83-2.03c0.14-0.04,0.2-0.13,0.34-0.18c3.07-0.89,6.1-1.89,9.15-2.82
			c0.14-0.03,0.25,0.02,0.4-0.01c6.37-1.97,12.63-3.23,19.15-3.9c1.72,0.07,3.34,0.35,5.21,0.05c-2.53,8.22-3.92,16.79-3.18,25.79
			c-0.53,3.31-0.86,6.77-1.04,10.33c-0.81,2.09-1.71,4.16-2.48,6.26c-2.82,7.7-3.23,15.66-2.04,23.44
			c-0.95,11.14,1.1,21.04,5.56,30.24c0.41,3.93,0.87,7.87,1.18,11.81c0.01,0.17,0,0.79,0,1.16c-1.42,2.3-2.83,4.6-4.25,6.89
			c-2.4,3.89-4.06,8.23-5.38,12.7c-1.81,1.63-3.61,3.27-5.42,4.9c-2.99-2.32-5.02-5.36-6.78-8.66c-2.86-5.33-8.15-7.36-13.38-7.05
			c-2.22-2.41-4.53-4.73-7.32-6.64c-11.7-8-29.08-4.58-42.24-2.9c-5.86,0.75-11.34,1.48-17.16,0.25c-6.94-1.46-13.78-2.3-20.83-3.06
			c-3.53-0.38-7.11-1.22-10.63-1.36c-4.47-2.23-9.81-1.93-14.4,0.34c-2.26,1.12-3.95,2.55-5.31,4.15c-10,5.14-9.95,21.46,0.23,26.68
			c0.62,0.84,1.19,1.72,1.93,2.44c2.37,2.33,5.33,3.66,8.45,4.42c12.61,6.39,29.27,2.32,42.72,1.2c6.13-0.51,12.33-1.35,18.48-1.42
			c0.44-0.01,2.37,0.13,3.01,0.15c0.3,0.19,1.26,0.65,1.42,0.75c2.34,1.57,4.57,3.3,6.96,4.78c0.66,0.41,1.44,0.56,2.12,0.92
			c-0.27,2.29-0.1,4.59,0.63,6.69c-1.62,0.93-2.98,2.11-3.98,3.65c-0.17,0.19-0.19,0.47-0.35,0.66c-6.86-0.22-13.46,1.11-19.89,3.05
			c-1.24-0.34-2.38-0.83-3.85-0.86c-12.17-0.23-24.35-0.44-36.52-0.69c-4.86-0.1-9.84-0.03-14.66-0.74
			c-2.17-0.32-4.21-0.63-6.21-0.88c-0.66-0.82-1.44-1.55-2.35-2.1c-1.48-0.9-3.3-1.43-4.95-1.96c-2.24-0.73-4.48-1.43-6.67-2.27
			c-0.96-0.44-1.92-0.88-2.81-1.44c-1.06-0.66-2.55-1.02-3.79-1.02c-1.67,0-3.24,0.6-4.54,1.61c-1.06,0.82-1.79,1.77-2.31,3
			c-0.69,1.64-0.7,3.12-0.38,4.88c0.05,0.27,0.1,0.55,0.15,0.83c-0.26,1.15-0.34,2.33,0.05,3.44c0.33,0.92,0.52,1.86,0.68,2.82
			c0.06,1.03,0.33,2.08,0.76,3.06c-3.01,3.15-5.92,6.44-9.35,9.22c-1.16,0.94-2.29,1.82-3.43,2.73c-3.66-0.05-7.38,1.04-10.45,3.9
			c-1.03,0.96-2.06,1.92-3.09,2.88c-1.98-0.31-4-0.28-5.97,0.44c-1.22,0.45-2.35,1.09-3.57,1.56l-0.02-0.04
			c-0.11,0.08-0.23,0.12-0.34,0.2c-0.3,0.12-0.58,0.27-0.89,0.39c-2.29,0.13-4.61,0.56-6.93,1.59c-0.43,0.19-0.86,0.38-1.3,0.57
			c-0.48-0.22-0.86-0.62-1.38-0.75c-2.41-0.6-5.24-0.19-7.69-0.01c-3.09,0.22-6.13,0.72-9.18,1.16c-0.07,0-0.12-0.04-0.19-0.03
			c-0.89,0.07-1.79,0.15-2.68,0.22c-0.44-0.31-0.91-0.61-1.56-0.53c-0.27,0.03-0.53,0.1-0.79,0.14c0-0.01,0-0.02,0-0.03
			c-7.13,1.11-14.26,2.22-21.39,3.32c-3.45,0.54-6.95,0.93-10.37,1.61c-3.34,0.66-5.71,3.13-5.05,6.66c0.3,1.59,2.22,2.5,3.69,2.09
			c1.38-0.38,1.94-1.6,1.99-2.9c0.01,0,0.01,0.01,0.02,0.01c-0.03,0.05,0.15,0.08,0.17,0.08c0.29,0.1,0.44,0.35,0.79,0.35
			c7.31,0.13,14.61,0.26,21.92,0.39c0.64,0.98,1.49,1.8,2.49,2.46c-0.27,0.33-0.68,0.56-0.94,0.9c-1.32,0.99-2.68,1.93-3.98,2.98
			c-0.05,0.04-0.07,0.11-0.11,0.15c-1.57,0.97-3.19,1.81-4.72,2.92c-0.69,0.5-1.19,1.21-1.81,1.8c-0.16,0.02-0.31,0-0.47,0.03
			c-5.76,1-10.95,3.8-15.71,7.22c-0.05,0-0.1-0.05-0.15-0.05c-1-0.22-1.99-0.18-2.99,0.13c-0.6,0.25-1.19,0.5-1.79,0.76
			c-1.13,0.67-2.02,1.56-2.69,2.69c-0.25,0.6-0.5,1.19-0.76,1.79c-0.19,0.71-0.01,1.42,0,2.13c-2.32,1.09-4.62,2.27-6.87,3.52
			c-13.39,5.75-26.55,11.97-39.24,19.18c-0.79,0.45-1.41,1.15-2.11,1.77c-11.18,2.79-19.03,12.64-21.24,23.73
			c-0.12,0.39-0.37,0.73-0.48,1.13c0.08,0.01,0.16,0.02,0.25,0.03c-0.21,1.33-0.74,2.61-0.78,3.96
			c-0.25,8.16,5.51,13.03,12.02,14.22c0.29,0.31,0.45,0.67,0.76,0.97c7.83,7.46,17.25,7.21,26.56,4.53c1.32,0.4,2.61,0.85,4.08,0.91
			c7.58,0.31,15.22-0.75,22.64-2.55c0.84-0.05,1.63,0.08,2.49-0.09c3.28-0.67,6.56-1.35,9.84-2.02c0.01,1.25-0.12,2.55,0.24,3.67
			c0.07,0.23,0.25,0.43,0.33,0.66c-1.67,1.88-3.34,3.75-5.01,5.63c-1.11,1.24-1.64,2.76-1.87,4.27c-0.01,0.02-0.03,0.04-0.04,0.06
			c-0.01,0.02,0,0.04-0.01,0.06c-0.04,0.25-0.1,0.46-0.11,0.71c-0.06,0.15,0.02,0.3-0.04,0.45c-0.7,0.79-1.33,1.64-1.99,2.46
			c-1.21,0.02-2.45,0.3-3.68,1.22c-1.89,1.4-3.77,2.8-5.66,4.2c-0.04,0.03-0.05,0.06-0.08,0.09c-11.5,6.63-23.41,12.61-36.95,13.15
			c-0.15,0.01-0.21,0.13-0.35,0.14c-1.29-0.49-2.59-0.92-3.87-1.57c-0.29-1.28-0.76-2.53-1.77-3.35c-4.59-3.72-7.85-10.35-14.6-9.69
			c-5.27,0.51-10.33,1.75-15.34,0.32c-3.72-1.07-6.72,0.9-8.24,3.8c-0.66,0.62-1.31,1.24-1.97,1.86c-0.69-0.04-1.39-0.24-2.05-0.09
			c-0.32,0.07-0.52,0.34-0.81,0.44c0.2-1.9-0.2-3.84-1.41-5.36c-2.12-2.67-6.62-4.18-9.68-1.93c-0.5,0.37-0.94,0.87-1.43,1.29
			l-0.09-0.11c-0.12,0.12-0.15,0.31-0.27,0.43c-4.96,4.33-9.06,10.74-6.16,17.35c1.81,4.14,6.02,6.78,10.57,6.17
			c1.31-0.18,2.49-0.79,3.67-1.38c0.71,0.18,1.42,0.1,2.16,0.05c0.29,0.07,0.51,0.26,0.81,0.3c0.36,0.05,0.68-0.03,1.03-0.02
			c-4.02,3.19-7.96,6.51-11.48,10.21c-4.69,4.92-7.98,11.43-7.26,18.24c-0.44,0.39-0.92,0.73-1.22,1.22
			c-1.45-1.32-2.87-2.67-4.54-3.72c-2.53-1.59-5.72-3.65-8.75-3.74c-4.48-0.14-6.91,3.15-9.18,6.48c-1.51,2.21-2.94,4.48-4.49,6.66
			c-1.52,2.15-3.09,4.26-4.69,6.35c-0.21,0.28-1.04,1.35-0.43,0.57c-0.46,0.6-0.92,1.19-1.39,1.78c-0.46,0.58-0.91,1.17-1.37,1.75
			c-0.85,0.26-1.8,0.24-2.49,0.77c-3.1,2.4-3.57,6.25-1.93,9.68c2.86,5.98,7.79,10.6,12.69,14.92c0.83,0.73,1.86,0.88,2.83,1.24
			c0.09,0.82,0.18,1.64,0.31,2.43c0.67,4.21,2.66,8.24,6.28,10.66c3.37,2.25,7.61,2.54,11.51,3.21c1.53,0.26,3.02,0.44,4.49,0.55
			c1.49,1.53,3.42,2.73,5.44,2.95c0.2,0.02,0.28,0.14,0.47,0.18c-0.42,0.97-0.66,2.08-0.56,3.43c0.7,6.45,0.72,12.72,0.06,19.18
			c-0.11,1.08,0,2,0.23,2.82c-1.4,2.24-1.92,5.1-0.7,7.72c1.65,3.53,4.25,6.43,7.3,8.8c1.18,1.45,2.69,2.7,4.26,3.94
			c0.21,0.2,0.37,0.44,0.59,0.64c0.02-0.03,0.04-0.05,0.06-0.08c0.53,0.39,0.89,0.88,1.46,1.25c1.97,1.27,3.99,1.31,5.8,0.68
			c0.97,0.92,1.81,1.94,2.92,3.18c3.16,3.54,7.16,5.31,11.96,4.65c2.65-0.37,10.98-5.44,11.57-5c4.36,3.23,11.88-1.07,11.29-6.48
			c-0.09-0.84-0.05-1.68-0.12-2.53c2.09-10.23,4.3-20.46,6.73-30.64c2.5-1.42,4.98-2.87,7.51-4.24c1.15,0.28,2.37,0.35,3.73-0.16
			c22.73-8.53,44.8-18.74,65.95-30.66c1.18-0.67,1.98-1.51,2.57-2.43c0.48-0.19,0.97-0.14,1.44-0.39c2.35-1.25,4.46-2.86,6.76-4.17
			c-1.81,4.31-3.57,8.68-5.42,13.13c-1.19,2.86-2.58,5.64-4,8.4c-2.53,3.01-5.2,5.89-7.63,8.98c-5.08,6.46-12.3,13.61-14.53,21.71
			c-1.65,6-0.1,11.04,3.11,15.06c-0.85,1.25-1.69,2.53-2.23,4.07c-1.29,3.66-2.33,7.4-3.39,11.12c-1,1.93-2.08,3.8-2.93,5.81
			c-0.88,1.28-1.73,2.61-2.23,4.21c-0.35,2.11-1.18,4.09-1.66,6.17c-0.12,0.34-0.38,0.58-0.48,0.94c-0.15,0.53-0.29,1.06-0.43,1.58
			c-0.3,0.41-0.73,0.69-0.99,1.14c-3.56,6.08-5.23,12.47-5.75,19.45c-0.06,0.74,0.2,1.45,0.3,2.18c-1.11,1.45-2.05,3.09-2.66,4.97
			c-3.63,11.24-3.86,22.87-1.83,34.42c0.38,2.18,1.7,4.1,3.3,5.83c0.35,5.48,2.25,10.92,4.87,15.95c3.62,6.97,9.98,11.63,16.66,15.4
			c4.25,2.4,9.29,2.47,13.6,0.53c0.97,0.42,1.95,0.87,2.96,1.18c1,0.31,1.99,0.36,2.99,0.13c1-0.05,1.93-0.34,2.79-0.89
			c0.51-0.39,1.01-0.78,1.52-1.17c0.93-0.94,1.57-2.04,1.93-3.31c0.21-0.93,0.32-1.89,0.42-2.83c0.03-0.28,0.03-0.55,0-0.83
			c-0.03-0.28-0.11-1.67-0.35-2.35c-0.01-0.04-0.03-0.08-0.04-0.11c-0.25-0.6-0.5-1.2-0.76-1.79c-0.04-0.07-0.07-0.15-0.12-0.22
			c-0.19-0.29-0.49-0.64-0.65-0.85c-0.14-0.18-0.42-0.6-0.66-0.84c-0.04-0.04-0.08-0.07-0.13-0.11c-0.39-0.3-0.78-0.6-1.16-0.9
			c-0.08-0.86-0.06-1.73-0.31-2.58c-0.75-2.57-1.81-5.13-3.31-7.36c-0.67-1-1.45-1.94-2.19-2.9c-0.2-0.26-0.41-0.52-0.61-0.78
			c-0.05-0.07,0.02,0.02-0.05-0.08c-0.42-0.63-0.87-1.24-1.26-1.89c-0.11-0.18-0.2-0.37-0.3-0.55c-0.4-1.82-0.77-3.64-1.36-5.42
			c-0.64-1.95-1.64-3.65-2.84-5.16c-0.16-0.94-0.37-1.87-0.52-2.81c-0.08-0.84-0.18-1.68-0.26-2.53c-0.16-1.71-0.29-3.43-0.38-5.14
			c-0.2-3.61-0.23-7.21-0.13-10.82c0.02-0.78-0.28-1.47-0.39-2.22c0.62-0.67,1.3-1.02,1.91-1.81c2.12-2.75,2.33-6.42,1.68-9.87
			c0.15-0.9,0.46-1.76,0.63-2.66c4.4,3.98,11.07,5.41,17.47,2.24c0.98-0.48,3.59-0.17,4.68-0.25c2.77-0.21,5.52-0.53,8.28-0.89
			c4-0.52,7.94-1.31,11.88-2.11c3.09,1.61,6.57,2.33,10,0.93c3.5-1.43,6.97-3.07,10.46-4.6c3.79,1.19,7.96,0.98,11.53-1.38
			c9.51-6.27,18.54-13.23,27.2-20.64c6.82-5.12,13.04-10.95,18.54-17.58c0.78-0.82,1.7-1.51,2.47-2.34
			c-0.07-0.06-0.15-0.11-0.22-0.17c0.79-1.03,1.81-1.8,2.57-2.87c1.07-1.51,1.7-3.21,1.97-4.96c6.72-6.42,12.83-13.34,18.2-21
			c1.43-2.04,1.97-4.14,2.16-6.24c0.51-0.61,0.95-1.26,1.46-1.86c-0.02-0.01-0.04-0.03-0.06-0.04c0.75-1.05,1.68-1.9,2.4-2.99
			c1.77-2.66,2.14-5.4,1.96-8.07c1.37-0.74,2.74-1.46,3.97-2.48c4.12,0.64,8.58-0.22,12.52-3.71c4.43-3.93,8.46-8.2,12.41-12.53
			c1.3,2.89,3.38,5.26,6.07,6.91c-0.47,7.13-0.53,14.25-1.68,21.03c-3.56,7.12-7.11,14.23-10.67,21.35
			c-0.17,0.34-0.14,0.65-0.28,0.99c-3.89,6.7-8.11,13.2-13.14,19.13c-5.24,6.18-6.06,15.15,0,21.21c6.26,6.26,14.86,5.08,21.21,0
			c2.28-1.82,4.56-3.65,6.85-5.47c0.52-0.21,1.06-0.25,1.58-0.52c7.78-3.96,14.49-9.45,20.24-15.87c2.26-1.21,4.34-2.86,5.94-5.34
			c0.08-0.12,0.16-0.25,0.24-0.37c11.06-5.68,14.02-17.37,14.97-28.75c0.27-3.25,1.26-7.98,2.6-12.18c1.23-3.86,2.25-6.11,4.23-9.65
			c3.96-7.07,8.69-12.88,15.62-17.28c0.77-0.49,1.11-0.73,1.27-0.85c-0.07,0.09,0.01,0.13,1.05-0.27c2.66-1.02,5.3-2.03,7.9-3.19
			c1.54-0.69,2.99-1.59,4.43-2.47c0.14,0.08,0.22,0.24,0.36,0.32c2.27,1.2,4.53,1.62,6.85,1.72c2.22,1.41,4.68,2.39,7.4,2.12
			c1.38-0.14,2.64-0.41,3.98-0.59c0,0.02,0,0.03,0.01,0.05c0.09-0.01,0.17-0.08,0.25-0.09c5.81-0.76,11.35-1.84,16.88-4.3
			c5.66-2.52,10.42-6.9,14.43-11.56c3.26-3.79,6.36-7.77,9.24-11.88c0.6,1.48,1.44,2.79,2.44,4.04c-0.37,4.91-0.78,9.82-0.52,14.74
			c0.04,0.84,0.39,1.58,0.55,2.38c-0.31,6.13-0.37,12.32,1.36,18.28c0.73,2.52,2.69,4.54,5.24,5.24c2.72,0.75,5.24-0.14,7.3-1.93
			c4.49-3.92,8.06-8.8,11.44-13.68c1.67,4.78,4.83,9.48,7.65,13.51c3.37,4.81,7.15,9.15,12.01,12.51
			c5.24,3.63,11.51,5.31,17.66,6.66c5.96,1.32,11.93,2.59,17.9,3.88c2.15,1.01,4.37,1.61,6.61,1.7c-0.75-1.68-1.28-3.39-1.98-5.08
			c2.02,1.6,4.38,2.82,7.23,2.93c2.47,0.1,3.47-2.57,2.59-4.51c-6.81-15-9.21-31.44-11.58-47.6c-1.22-8.33-1.93-16.42-1.56-24.84
			c0.28-6.37,0.22-12.79-3.55-18.23c-0.21-0.31-0.54-0.31-0.8-0.51c0.07-0.17,0.13-0.35,0.19-0.52c-1.62-5.13-3.98-10.5-8.06-13.46
			c-0.31-5.83-2.19-11.42-3.26-17.16c-0.06-0.34-0.07-0.37-0.09-0.49c-0.06-0.59-0.11-1.19-0.14-1.78c-0.09-1.57-0.06-3.13-0.01-4.7
			c0.03-0.4,0.03-0.49,0.03-0.58c0.05-0.27,0.1-0.53,0.16-0.8c0.04-0.14,0.72-2.33,0.77-2.75c0.48-1.03,1.08-2.04,1.74-2.97
			c0.32-0.26,1.9-2.04,1.91-2.06c0.96-0.94,1.98-1.82,3.02-2.68c0.3-0.19,2.34-1.77,2.32-1.75c5.41-3.86,10.98-7.57,16.89-10.63
			c1.45-0.75,2.93-1.45,4.42-2.14c0.94-0.41,0.98-0.44,0.12-0.08c0.5-0.2,1-0.4,1.5-0.61c3.01-1.19,6.04-2.29,9.09-3.38
			c6.8-2.42,13.57-4.87,20.19-7.75c5.92-2.58,14.97-6.07,17.66-12.4c1.04-2.45,1.43-4.91,1.47-7.35
			c6.8-3.79,11.21-10.66,11.92-19.33c0.18-2.2,0.41-4.4,0.62-6.6c0.39-0.48,0.76-0.97,1.18-1.43c3.26-3.61,4.78-8.3,4.01-12.96
			c4.79-5.74,7.36-12.76,6.72-20.93c-0.09-1.14-0.26-2.28-0.41-3.42c3.57,2.9,8.16,4.38,13.04,3.04
			c7.49-2.06,13.08-10.74,10.48-18.45c-0.61-1.81-1.03-3.65-1.53-5.47c0.98-2.74,1.43-5.65,0.41-8.49c-2.88-8-5.34-16.1-7.39-24.35
			c-0.68-2.74-2.22-5.05-4.24-6.84c-0.08-0.44,0.04-0.85-0.09-1.29c-2.34-8.18-4.51-16.41-6.36-24.72
			c-0.39-1.76-0.72-3.28-1.03-4.77c0.05-0.57,0.33-1.05,0.31-1.63c-0.37-10.52,1.13-19.12,3.26-29.37c0.2-0.96,0.47-1.9,0.7-2.85
			c4.01-6.59,8.5-12.91,12.79-19.32c0.54-0.8,0.83-1.62,1.17-2.44c0.18-0.1,0.4-0.05,0.58-0.16c0.62-0.37,1.24-0.75,1.86-1.12
			c0.61-0.33,0.94-0.93,1.46-1.34c0.36,0.02,0.68,0.2,1.09,0.04c0.24-0.1,0.47-0.22,0.71-0.31c0,0,0,0.01,0,0.01
			c0.06-0.04,0.12-0.06,0.18-0.1c1.31-0.53,2.59-1.17,3.89-1.72c3.5-0.67,6.95-1.57,10.34-2.76c1.18-0.41,1.66-1.28,1.87-2.21
			c0.76,0.07,1.48,0.33,2.25,0.35c2.72,0.08,3.8-3.28,2.12-5.12c-4.11-4.53-8.78-8.49-13.87-11.89c-1.22-0.81-2.29-0.41-3.13,0.32
			c-0.57-0.95-1.03-1.92-1.78-2.85c0.2,0.25,0.23,0.29,0.54,0.68c-0.36-0.5-0.71-1-1.04-1.51c-0.59-0.89-1.15-1.81-1.69-2.73
			c-1.16-1.99-2.2-4.05-3.2-6.12c-1.06-2.2-2.09-4.42-3.12-6.63c2.91-2.35,4.73-5.7,5.11-9.56
			C1104.29,278.53,1118.33,271.07,1131.57,262.48z M606.79,632.19c-4.2,5.76-6.8,12.63-9.7,19.27c-0.37,0.41-0.74,0.83-1.11,1.24
			c-0.19,0.17-0.41,0.21-0.59,0.4c-3.22,3.17-6.08,6.62-9.03,10c-0.25,0.15-0.56,0.13-0.8,0.3c-1.94,1.37-3.71,2.85-5.52,4.3
			c-2.47-0.02-4.98,0.47-7.4,2.31c-3.61,2.74-7.23,5.48-10.84,8.23c-1.09,0.83-1.74,1.81-2.56,2.74c-1.09,0.91-2.19,1.82-3.28,2.73
			c-2.44,0-4.97,0.87-7.13,2.21c-5.09,3.15-10.04,6.56-15.05,9.84c-0.25,0.16-0.49,0.32-0.74,0.49
			c-11.41,5.05-23.14,9.77-33.16,17.32c-0.86,0.65-1.64,1.41-2.48,2.09c6.28-20.65,14.01-40.79,23.97-60
			c0.81-0.73,1.62-1.47,2.44-2.2c0.97,0.47,2.01,0.78,3.1,0.73c0.66-0.09,1.33-0.18,1.99-0.27c1.27-0.36,2.37-1,3.31-1.93
			c1.88-1.64,3.61-3.45,5.15-5.42c0.31-0.29,0.43-0.69,0.66-1.03c0.61-0.68,1.22-1.36,1.83-2.04c0.73-0.68,1.25-1.48,1.55-2.41
			c0.04-0.07,0.02-0.15,0.05-0.21c3.01-3.07,6.21-5.92,9.58-8.61c0.43-0.33,0.31-0.24-0.34,0.26c0.31-0.24,0.63-0.48,0.94-0.72
			c0.63-0.48,1.26-0.96,1.89-1.44c0.09-0.07,0.18-0.13,0.27-0.2c1.14-0.33,2.3-0.66,3.23-1.54c1.55-1.47,3.1-2.95,4.65-4.42
			c0.58-0.39,1.11-0.85,1.67-1.27l1.85-1.4c0,0,0,0-0.01-0.01c0.49-0.42,1.06-0.73,1.52-1.17c1.07-1.01,1.41-2.41,1.68-3.79
			c0.96-0.13,1.94-0.15,2.85-0.37c2.22-0.52,4.37-1.63,6.4-2.61c0.56-0.27,1.13-0.51,1.69-0.77c3.28-1.32,6.61-2.49,10.03-3.38
			c1.36-0.36,2.62-1.16,3.86-1.95c1.83-0.57,3.67-1.14,5.5-1.71c0.86,0.01,1.69,0.13,2.55,0.08c1.54-0.03,3.1-0.13,4.72-0.35
			c0.14-0.02,0.24-0.15,0.38-0.18c0.6,8.61,1.05,17.24,1.4,25.86C607.47,631.53,607.09,631.78,606.79,632.19z M1044.26,290.34
			c-1.01,4.01-2.36,7.84-3.75,11.72c-0.04,0.12,0,0.03-0.03,0.11c-0.1,0.2-0.08,0.15-0.24,0.48c-0.37,0.78-0.73,1.57-1.11,2.34
			c-0.95,1.94-1.98,3.84-3.06,5.71c-0.98,1.68-2.02,3.33-3.1,4.94c-0.6,0.9-1.23,1.77-1.85,2.66c-0.12,0.17-0.11,0.15-0.2,0.27
			c-1.38,1.7-2.95,3.22-4.43,4.82c-0.51,0.12-1.05,0.03-1.55,0.24c-1.11,0.46-2.24,0.87-3.37,1.29c0.73-2.97,1.17-6.02,1.35-9.02
			c0.19-3.14,0.13-6.28,0.22-9.42c0.05-1.61,0.19-3.2,0.31-4.8c0.06-0.37,0.12-0.74,0.2-1.11c0.18-0.9,0.41-1.79,0.66-2.68
			c0.61-2.13,0.08-4.27-1.09-6.01c0.06-0.23,0.19-0.43,0.2-0.68c0.11-2.42-0.09-4.9-0.14-7.32c-0.01-0.54-0.34-0.99-0.62-1.46
			c0.66-1.31,1.32-2.61,2.05-3.88c0.79-1.36,0.36-3.35-1.08-4.1c-1.43-0.76-3.26-0.37-4.1,1.08c-0.44,0.77-0.72,1.61-1.13,2.4
			c-0.9,0.3-1.68,0.86-2.01,1.87c-0.83,2.54-1.65,5.08-2.48,7.62c-0.2,0.61,0,1.25,0.24,1.85c-1.44,0.59-2.82,1.41-3.55,2.86
			c-0.3,0.59-0.42,1.22-0.69,1.82c-0.02-0.01-0.05-0.02-0.07-0.03c-0.03,0.12-0.02,0.24-0.05,0.36c-2.11,4.9-3.33,9.99-4.65,15.18
			c-0.3,1.18-0.62,2.35-0.99,3.5c-0.05,0.17-0.11,0.33-0.17,0.49c-1.84,2.8-3.84,5.5-5.43,8.45c-0.09,0.17-0.01,0.36-0.09,0.54
			c-1.5,1.45-2.98,2.93-4.51,4.35c-2.97-4.46-5.93-8.93-8.81-13.45c-9.23-14.52-18.79-29.04-30.92-41.34
			c-1.74-1.77-3.99-2.77-6.35-3.41c8.26-10.52,20.18-21.07,32-26.43c7.88-3.57,17.28-2.02,26.01-1.84c4.73,0.1,9.42-0.02,14.11-0.25
			c2.67,3.19,6.48,5.34,11.08,5.45c0.94,1.01,1.71,2.18,2.92,2.92c0.01,0.01,0.02,0.03,0.02,0.04c-0.6-0.47-1.2-0.93-1.8-1.4
			c0.89,0.71,1.55,1.63,2.38,2.4c0.1,0.19,0.22,0.36,0.32,0.55c1.04,3.09,1.87,6.25,3.07,9.3c1.28,3.25,2.89,6.31,4.41,9.42
			c-0.35,2.04-0.37,4.13,0.31,6.2c1.29,3.89,2.15,7.86,2.78,11.89c0.03,0.36,0.07,0.72,0.1,1.08
			C1045.15,288.72,1044.57,289.41,1044.26,290.34z"/>
		<g>
			<g>
				<path d="M808.1,193.41c-10.92-3.34-20.13,4.11-26.96,11.79c-3.71,4.17-7.06,8.66-10.68,12.91c-3.66,4.28-7.86,8.08-12.52,11.24
					c-19.47,13.24-44,16.57-66.86,19.28c-5.58,0.66-11.41,1.06-16.95-0.05c-4.61-0.92-9.49-3.01-11.39-7.67
					c-1.83,0.77-3.66,1.54-5.48,2.31c7.64,13.05,5.92,28.92,6.74,43.42c0.68,11.91,3.77,24.87,12.2,33.77
					c4.54,4.8,10.49,7.65,17.03,8.37c8.42,0.93,17.05-1.59,25.23-3.28c17.25-3.57,34.49-7.14,51.74-10.71
					c19.58-4.05,39.15-8.1,58.73-12.15c-1.23-1.23-2.46-2.46-3.69-3.69c-3.41,17.74-5.36,35.77-5.74,53.84
					c-0.18,9.01,0.02,18.04,0.61,27.03c0.47,7.18,1.27,14.34,1.23,21.54c-0.03,6.29-0.59,12.87-3.17,18.69
					c-1.28,2.88-3.04,5.49-5.32,7.67c-2.42,2.32-5.58,4.27-6.25,7.82c-0.65,3.43,1.58,6.31,5.1,6.4c2.56,0.06,5.44-1.55,5.36-4.41
					c-0.05-1.75-1.41-3.1-2.41-4.41c-1.29-1.68-2.6-3.35-3.95-4.98c-2.57-3.12-5.24-6.14-8.03-9.06
					c-5.57-5.85-11.56-11.28-17.92-16.26c-1.56-1.23-3.13-2.6-4.81-3.66c-1.97-1.23-4.64,0.02-6.74,0.48
					c-4.19,0.91-8.41,1.67-12.66,2.27c-16.86,2.35-34.2,2.11-50.99-0.69c-4.23-0.71-8.43-1.57-12.6-2.59
					c-2.03-0.5-4.05-1.03-6.06-1.6c-2.09-0.6-4.19-1.46-6.31-1.93c-1.65-0.36-3.5,0.56-4.99,1.2c-1.51,0.66-2.91,1.47-4.23,2.45
					c-2.63,1.95-4.84,4.35-6.59,7.11c-3.5,5.52-4.93,12.24-3.98,18.69c0.98,6.63,4.78,12.79,9.81,17.14
					c5.29,4.57,11.78,7.46,18.73,8.25c8.44,0.95,16.84-1.23,24.94-3.31c6.98-1.79,13.94-3.61,21.2-2.94
					c5.37,0.5,11.16,2.31,15.07,6.19c1.81,1.8,3.01,3.95,3.65,6.41c0.7-1.23,1.4-2.46,2.1-3.69c-29.88,7.46-61.55,7.1-91.29-0.9
					c-8.32-2.24-16.5-5.05-24.41-8.48c-1.37-0.59-2.9-0.52-3.87,0.77c-0.87,1.17-0.86,2.88,0.23,3.94c7.27,7,4.27,19.03-1.77,25.82
					c-8.3,9.33-22.34,11.17-34.03,12.66c-29.7,3.8-59,9.66-87.68,18.31c-16.14,4.86-32.03,10.52-47.62,16.94
					c-1.5,0.62-2.56,1.99-2.1,3.69c0.39,1.42,2.18,2.72,3.69,2.1c29.01-11.93,59.08-21.23,89.78-27.72
					c15.12-3.19,30.35-5.52,45.67-7.53c12.74-1.68,27.5-4.05,36.52-14.19c8.19-9.2,11.52-24.92,1.77-34.3
					c-1.21,1.57-2.42,3.14-3.64,4.71c29.34,12.7,61.79,17.85,93.62,14.62c9-0.91,17.93-2.45,26.71-4.64c1.59-0.4,2.5-2.15,2.1-3.69
					c-2.2-8.44-9.61-13.7-17.71-15.85c-9.9-2.63-19.57-0.58-29.27,1.91c-10.15,2.61-21.17,5.56-31.24,1.03
					c-7.87-3.53-14.77-10.98-15.26-19.93c-0.49-9.06,5.03-18.57,14.08-20.99c-0.53,0-1.06,0-1.6,0c23.99,7.8,49.7,10.36,74.75,7.38
					c7.15-0.85,14.24-2.11,21.24-3.81c-0.77-0.1-1.54-0.2-2.31-0.3c10.64,7.8,20.32,16.93,28.81,27.03c1,1.19,1.98,2.39,2.94,3.61
					c0.29,0.37,2.63,3.86,2.9,3.81c0.01-0.34,0.01-0.68,0.02-1.02c-0.22-0.73-0.01-1.28,0.64-1.66c-0.09,0.16-0.12,0.16-0.09,0.05
					c0.02-0.06-0.06-0.02-0.06-0.03c0.09,0.23-0.16-0.26-0.04,0c0.03,0.06,0.25,0.12,0.3,0.2c0.59,0.94,0.25,0.64,0.67-0.1
					c0.59-1.03,1.73-1.83,2.62-2.59c1.09-0.92,2.14-1.87,3.08-2.93c1.72-1.93,3.21-4.08,4.37-6.38c5.01-9.97,4.88-21.67,4.16-32.54
					c-0.91-13.89-1.84-27.67-1.43-41.6c0.49-16.61,2.31-33.15,5.45-49.47c0.44-2.31-1.35-4.17-3.69-3.69
					c-33.79,6.99-67.59,13.99-101.38,20.98c-4.31,0.89-8.62,1.78-12.94,2.68c-3.94,0.81-7.89,1.75-11.89,2.19
					c-6.54,0.71-13.15-0.07-18.38-4.36c-8.65-7.08-11.86-19.46-12.65-30.15c-1.2-16.17,0.88-33.39-7.66-48
					c-1.65-2.83-6.8-0.93-5.48,2.31c4.28,10.53,15.89,12.92,26.18,12.73c5.73-0.11,11.44-0.99,17.11-1.74
					c6.08-0.81,12.14-1.72,18.16-2.9c11.96-2.34,23.84-5.72,34.69-11.37c5.26-2.74,10.22-6.05,14.71-9.93
					c4.39-3.78,8.01-8.23,11.63-12.72c3.92-4.86,7.89-9.97,12.84-13.84c4.18-3.27,8.99-5.14,14.23-3.53
					C810.21,200.33,811.79,194.54,808.1,193.41L808.1,193.41z"/>
			</g>
		</g>
		<g>
			<g>
				<path d="M811.18,199.33c-0.26-0.95-0.19-1.19,0.55-1.84c0.81-0.71,2.11-1.28,3.37-1.63c3.78-1.06,7.68-0.4,11.52-0.02
					c10.45,1.03,20.86,2.43,31.24,4c20.79,3.14,41.48,6.95,62.29,9.94c19.65,2.83,39.43,5,59.3,5.09
					c18.21,0.08,36.52-1.48,54.3-5.49c17.5-3.94,34.57-10.37,49.85-19.82c1.9-1.18,3.78-2.4,5.62-3.67c1.33-0.91,1.94-2.63,1.08-4.1
					c-0.78-1.33-2.76-1.99-4.1-1.08c-15.4,10.49-22.74,30.02-19.65,48.19c3.13,18.4,18.29,32.25,36.23,36.06
					c10.19,2.17,20.82,1.18,30.23-3.38c1.46-0.71,1.85-2.78,1.08-4.1c-0.87-1.49-2.64-1.78-4.1-1.08
					c-14.23,6.88-32.47,3.85-44.48-6.17c-6.18-5.16-10.56-11.95-12.51-19.78c-1.92-7.73-1.44-15.93,0.96-23.49
					c2.68-8.41,7.94-16.08,15.28-21.08c-1.01-1.73-2.02-3.45-3.03-5.18c-15.05,10.31-31.94,17.4-49.6,21.82
					c-17.87,4.47-36.3,6.26-54.7,6.33c-20.04,0.07-40.02-1.99-59.84-4.83c-21.23-3.05-42.32-6.94-63.53-10.13
					c-10.6-1.59-21.23-3.02-31.9-4.07c-4.23-0.42-8.34-0.94-12.53,0.08c-3.19,0.78-6.74,2.45-8.26,5.55
					c-0.85,1.73-0.94,3.61-0.43,5.45C806.43,204.64,812.22,203.06,811.18,199.33L811.18,199.33z"/>
			</g>
		</g>
		<g>
			<g>
				<path d="M1100.55,278.73c-5.97,3.26-12.29,7.5-14.93,14.05c-3.22,8.01,2.55,14.96,7.43,20.74c5.13,6.08,10.85,11.65,17.05,16.64
					c6.29,5.06,13.18,10.32,20.87,13.04c7.82,2.77,17.82,1.42,22.35-6.26c1.97-3.33-3.22-6.35-5.18-3.03
					c-1.29,2.18-3.42,3.56-5.94,4.24c-2.75,0.74-5.7,0.51-8.62-0.39c-3.33-1.03-6.37-2.82-9.29-4.7c-2.95-1.89-5.82-3.91-8.58-6.06
					c-5.7-4.44-11.01-9.41-15.84-14.78c-2.32-2.57-4.64-5.22-6.62-8.07c-0.88-1.26-1.74-2.6-2.19-4.09
					c-0.21-0.68-0.33-1.19-0.36-1.85c-0.02-0.33-0.02-0.67,0-1c0.01-0.22,0.03-0.44,0.05-0.66c-0.03,0.26-0.01,0.2,0.05-0.17
					c0.33-1.56,0.73-2.39,1.65-3.76c0.72-1.06,1.88-2.27,3.01-3.29c2.38-2.13,5.25-3.86,8.13-5.43
					C1106.97,282.06,1103.94,276.88,1100.55,278.73L1100.55,278.73z"/>
			</g>
		</g>
		<g>
			<g>
				<path d="M1114.28,330.72c-17.54-0.14-34,9.91-41.98,25.5c-7.63,14.9-7.83,32.48-4.96,48.64c3.37,18.96,11.27,36.75,15.48,55.51
					c1,4.45,1.87,8.97,2.23,13.52c0.3,3.73,0.3,7.71-1.55,10.89c-0.86,1.48-1.81,2.36-3.19,3.09c-1.05,0.55-2.49,0.86-3.79,0.87
					c-1.72,0.02-2.73-0.18-4.5-0.8c-0.63-0.22-1.02-0.4-1.8-0.83c-0.38-0.21-0.75-0.43-1.12-0.67c-0.14-0.09-0.27-0.18-0.41-0.27
					c0.01,0.01-0.71-0.54-0.43-0.32c-2.84-2.3-4.42-5.51-5.26-9.25c-0.9-3.97-0.76-8.23-0.15-12.23c0.98-6.43,3.02-15-2.1-20.32
					c-1.2-1.24-2.81-2.09-4.49-2.44c-1.58-0.33-3.24,0.47-3.69,2.1c-0.41,1.49,0.5,3.36,2.1,3.69c0.36,0.08,0.72,0.17,1.07,0.3
					c-0.56-0.21,0.29,0.2,0.43,0.28c0.14,0.08,0.37,0.35-0.01-0.02c0.09,0.08,0.19,0.16,0.27,0.25c0.11,0.13,0.23,0.24,0.34,0.36
					c0.21,0.24-0.2-0.38,0.05,0.1c0.16,0.3,0.34,0.59,0.5,0.9c-0.27-0.54,0.13,0.39,0.18,0.54c0.1,0.31,0.18,0.63,0.25,0.95
					c0.03,0.14,0.23,1.31,0.16,0.79c0.21,1.64,0.18,3.32,0.05,4.96c-0.13,1.75-0.32,2.62-0.66,4.55c-1.56,8.82-1.53,18.8,4.26,26.18
					c4.45,5.67,13,8.94,19.96,6.31c8.66-3.28,10.27-12.91,9.43-21.1c-2.01-19.63-9.78-37.97-14.91-56.87
					c-4.3-15.82-6.54-32.86-1.7-48.76c2.24-7.35,6.13-14.18,11.81-19.49c6.06-5.67,13.94-9.37,22.15-10.55
					c1.97-0.28,3.99-0.38,5.99-0.36C1118.14,336.75,1118.15,330.75,1114.28,330.72L1114.28,330.72z"/>
			</g>
		</g>
		<g>
			<g>
				<path d="M1063.02,483.37c-2.57,16.54-7.2,32.81-13.93,48.14c-5.92,13.48-13.37,26.79-24.67,36.5
					c-5.87,5.04-12.67,8.5-20.05,10.73c-7.33,2.22-14.94,3.52-22.11,6.26c-6.48,2.48-12.23,5.91-17.24,10.71
					c-2.01,1.92-3.98,3.92-5.73,6.07c-2.03,2.49-3.32,5.12-3.82,8.35c-0.62,3.96-0.67,7.97-0.03,11.93c0.55,3.39,1.73,6.62,3.1,9.75
					c2.66,6.07,6.39,11.72,8.63,17.92c0.6,1.65,1.09,3.34,1.48,5.05c0.36,1.58,2.18,2.51,3.69,2.1c1.63-0.45,2.45-2.1,2.1-3.69
					c-1.55-6.84-4.96-12.96-8.16-19.13c-2.98-5.75-5.46-11.59-5.3-18.13c0.07-3.05,0.17-6.51,1.96-9.12
					c0.08-0.12,0.49-0.68,0.29-0.41c-0.21,0.29,0.23-0.28,0.3-0.37c0.41-0.5,0.84-0.99,1.27-1.48c0.93-1.05,1.9-2.06,2.89-3.05
					c1.74-1.74,3.53-3.43,5.44-4.98c-0.73,0.59-0.01,0.03,0.13-0.08c0.4-0.28,0.8-0.55,1.21-0.82c0.92-0.61,1.86-1.18,2.82-1.73
					c1.66-0.94,3.38-1.8,5.14-2.54c7.1-2.97,14.73-4.29,22.1-6.4c7.93-2.27,15.26-5.69,21.78-10.78c11.68-9.11,19.79-22.07,26-35.32
					c7.12-15.18,12.34-31.23,15.43-47.71c0.38-2.05,0.73-4.11,1.05-6.17c0.25-1.6-0.41-3.23-2.1-3.69
					C1065.28,480.88,1063.27,481.76,1063.02,483.37L1063.02,483.37z"/>
			</g>
		</g>
		<g>
			<g>
				<path d="M956.45,646.73c-5.92,15.25-12.04,32.42-6.28,48.67c4.44,12.53,14.27,21.85,22.63,31.81c4.36,5.19,8.67,11.12,11,17.43
					c0.96-1.27,1.93-2.53,2.89-3.8c-13.51,1.72-27.35-0.54-39.51-6.72c-1.44-0.73-3.25-0.38-4.1,1.08c-0.78,1.34-0.37,3.37,1.08,4.1
					c13.05,6.64,27.98,9.39,42.53,7.54c1.75-0.22,3.65-1.76,2.89-3.8c-4.56-12.32-14.04-21.54-22.36-31.38
					c-3.93-4.65-7.61-9.54-10.21-15.22c-0.53-1.17-1.05-2.52-1.5-3.96c-0.57-1.83-1.02-3.7-1.3-5.6c-0.56-3.84-0.45-7.81,0.02-11.66
					c1.14-9.29,4.62-18.23,7.99-26.9c0.59-1.51-0.65-3.29-2.1-3.69C958.44,644.17,957.04,645.21,956.45,646.73L956.45,646.73z"/>
			</g>
		</g>
		<g>
			<g>
				<path d="M945.22,658.11c-9.53,26.54-25.92,50.31-47.19,68.82c1.57,0.2,3.14,0.4,4.71,0.61c-9.26-13.43-11.92-30.5-7.09-46.1
					c0.86-2.76-3.05-5.23-5.01-2.92c-6.96,8.19-14.41,16.39-23.59,22.13c-4.3,2.69-8.98,4.77-14.01,5.6
					c-5.62,0.93-10.77-0.42-16.17-1.84c-5.36-1.41-10.79-1.92-16.12-0.07c-4.82,1.67-9.09,4.7-12.57,8.41
					c-8.05,8.6-11.1,19.99-14.03,31.09c-2.78,10.54-6.31,20.39-12.57,29.41c-5.65,8.13-12.92,15.21-21.14,20.72
					c-8.27,5.54-17.46,9.59-27.19,11.74c-4.42,0.98-9.91,2.29-14.43,1.39c-6.6-1.32,0.43-10.65,2.1-13.69
					c6.61-12.03,13.22-24.06,19.84-36.08c4.71-8.57,9.53-17.21,10.2-27.19c0.57-8.56-3.69-17.31-12.87-18.76
					c-10.95-1.74-19.53,7-23.23,16.39c-1,2.55-1.73,5.2-2.34,7.87c-0.31,1.34-0.53,2.7-0.85,4.04c-0.41,1.71-1.43,2.98-2.4,4.41
					c-3.36,4.94-6.73,9.86-10.19,14.73c-6.91,9.73-14.15,19.24-22.21,28.06c-15.58,17.06-34.46,31.39-56.98,37.7
					c-10.67,2.99-22,4.14-33,2.42c-5.45-0.85-10.73-3.2-16.23-3.55c-5.68-0.36-9.85,2.91-11.64,8.16
					c-1.69,4.93-2.05,10.65-2.3,15.82c-0.27,5.59,0.01,11.18,0.75,16.72c1.47,10.95,4.82,21.6,9.93,31.4
					c2.59,4.96,5.67,9.59,9.09,14.01c0.2-1.57,0.4-3.14,0.61-4.71c-8.28,4.69-18.3,3.99-26.71-0.03
					c-9.35-4.46-16.39-12.19-20.21-21.8c-4.38-11.04-4.89-23.15-3.8-34.86c1.15-12.32,4.02-24.56,7.74-36.33
					c4.35-13.75,10.22-26.95,17.44-39.43c-1.86-0.5-3.73-1.01-5.59-1.51c0.11,1.14-1.31,1.17-2.49,0.93
					c-2.46-0.49-2.65-2.76-2.16-4.93c0.84-3.71,3.61-6.93,5.81-9.92c2.61-3.54,5.21-7.09,7.82-10.63
					c10.42-14.17,20.85-28.35,31.27-42.52c1.75-2.38-1.72-5.83-4.1-4.1c-29.36,21.25-62.28,37.4-97.09,47.51
					c-9.85,2.86-19.84,5.23-29.92,7.13c1.13,1.47,2.26,2.94,3.39,4.41c8.61-17.88,23.37-31.25,39.72-42.03
					c17.33-11.42,36.12-20.36,54.11-30.65c17.3-9.9,34.47-21.26,47.02-37.01c7.17-9,15.17-20.75,14.39-32.75
					c-0.4-6.17-3.43-11.95-8.66-15.36c-5.64-3.67-12.2-2.6-17.57,1c-6.58,4.41-12.62,9.85-18.82,14.78
					c-6.38,5.07-12.77,10.15-19.15,15.22c-12.9,10.25-25.79,20.5-38.69,30.75c-3.19,2.54-6.38,5.07-9.58,7.61
					c1.57,1.21,3.14,2.42,4.71,3.64c14.8-25.65,29.59-51.3,44.39-76.94c1.39-2.42-1.59-5.98-4.1-4.1
					c-19.65,14.67-48.09,13.82-67.87-0.2c-4.95-3.51-9.98-8.2-12.9-13.58c-4.32-7.94,5.77-11.79,11.32-14.79
					c16.38-8.84,32.77-17.68,49.15-26.52c18.4-9.93,36.79-19.85,55.19-29.78c2.73-1.47,1.33-5.47-1.51-5.59
					c-28.76-1.19-57.67,3.66-84.45,14.23c-3.55,1.4-2,7.21,1.6,5.79c26.34-10.39,54.57-15.18,82.86-14.01
					c-0.5-1.86-1.01-3.73-1.51-5.59c-35.36,19.08-70.71,38.15-106.07,57.23c-6.32,3.41-14.62,7.8-13.7,16.3
					c0.76,7.04,7.23,13.48,12.36,17.89c10.19,8.74,23.06,13.77,36.36,15.03c14.79,1.4,30.22-2.26,42.2-11.21
					c-1.37-1.37-2.74-2.74-4.1-4.1c-14.8,25.65-29.59,51.3-44.39,76.94c-1.81,3.14,2.17,5.66,4.71,3.64
					c24.77-19.69,49.54-39.37,74.31-59.06c2.77-2.2,5.51-4.44,8.31-6.6c2.67-2.07,5.83-4.47,9.39-4.33
					c5.69,0.22,9.67,6.11,10.19,11.31c0.68,6.71-2.47,13.24-5.75,18.87c-2.34,4.02-5,7.85-7.97,11.44
					c-12.22,14.78-28.47,25.44-44.96,34.86c-17.3,9.88-35.32,18.53-52.08,29.35c-17.85,11.52-34.27,25.9-43.64,45.33
					c-1.17,2.44,0.75,4.9,3.39,4.41c35.96-6.77,70.72-19.76,102.32-38.21c8.98-5.24,17.69-10.94,26.12-17.04
					c-1.37-1.37-2.74-2.74-4.1-4.1c-10.23,13.91-20.46,27.82-30.69,41.73c-2.51,3.41-5.02,6.82-7.53,10.24
					c-2.33,3.16-4.8,6.26-6.35,9.9c-2.31,5.41-1.77,12.54,4.54,14.69c4.63,1.58,11.54-0.53,10.97-6.45
					c-0.27-2.81-3.99-4.28-5.59-1.51c-13.71,23.72-23.2,50.62-25.92,77.96c-2.35,23.58,3.01,50.57,25.99,62.23
					c10.55,5.35,23.13,6.44,33.67,0.47c1.85-1.05,1.75-3.23,0.61-4.71c-13.56-17.51-19.86-40.27-17.7-62.26
					c0.39-3.94,0.46-12.53,5.45-13.54c2.33-0.47,4.92,0.41,7.13,1.05c2.68,0.77,5.36,1.47,8.1,1.97
					c10.98,1.99,22.23,1.48,33.09-0.97c21.97-4.96,41.33-17.48,57.25-33.11c8.36-8.21,15.84-17.25,22.89-26.6
					c3.51-4.65,6.9-9.4,10.24-14.18c1.63-2.33,3.24-4.67,4.84-7.02c1.61-2.35,4.17-5.05,5.09-7.75c0.86-2.55,1.06-5.44,1.75-8.06
					c0.73-2.78,1.62-5.52,2.97-8.07c2.33-4.4,5.95-7.99,10.88-9.24c4.01-1.02,8.37,0.3,10.61,3.9c1.93,3.12,1.91,7.17,1.4,10.68
					c-1.53,10.44-7.73,19.6-12.71,28.65c-6.45,11.74-13.03,23.42-19.36,35.22c-2.5,4.65-4.53,10.91,0.27,14.89
					c3.77,3.13,9.24,2.54,13.76,2c9.85-1.18,19.36-4.13,28.19-8.65c17.28-8.85,31.73-23.69,39.45-41.56
					c4.74-10.98,6.18-23,10.78-34.01c3.69-8.84,11.04-18.28,21.24-19.46c5.92-0.68,11.53,2.16,17.29,3.02
					c4.83,0.72,9.75,0.39,14.45-0.93c10.2-2.86,18.88-9.73,26.3-17.05c3.68-3.63,7.11-7.5,10.46-11.43
					c-1.67-0.97-3.34-1.95-5.01-2.92c-5.26,16.99-2.4,36.06,7.7,50.72c1.15,1.66,3.18,1.94,4.71,0.61
					c22.06-19.19,38.85-43.96,48.73-71.46C952.31,656.07,946.51,654.5,945.22,658.11L945.22,658.11z"/>
			</g>
		</g>
		<g>
			<g>
				<path d="M755.15,337.56c-17.1,3.51-34.31,6.51-51.59,8.97c-8.5,1.21-17.02,2.28-25.55,3.23c-8.54,0.95-17.11,1.89-25.71,2.2
					c-8.06,0.29-16.21,0.01-24.1-1.75c-6.09-1.36-11.77-3.44-17.2-6.25c-10.97-5.68-20.61-14.02-27.78-23.94
					c-7.34-10.16-12.33-21.73-13.97-34.21c-0.13-1-0.3-2.83-0.39-4.15c-0.23-3.3-4.9-4.16-5.89-0.8
					c-4.93,16.67-9.86,33.34-14.79,50.01c-1.41,4.76-2.82,9.53-4.22,14.29c1.47-0.6,2.94-1.2,4.41-1.79
					c-7.86-4.98-12.07-14.32-11.11-23.45c0.23-2.18-2.76-3.86-4.51-2.59c-12.82,9.29-15.1,27.36-8.71,41.15
					c7.11,15.36,24.22,24.01,40.2,26.75c21.09,3.61,42.42-0.69,63.21-4.29c20.39-3.53,40.76-7.25,60.97-11.72
					c20.25-4.48,40.36-9.7,60.06-16.2c2.43-0.8,4.84-1.62,7.26-2.46c1.53-0.53,2.54-2.05,2.1-3.69c-0.41-1.49-2.15-2.63-3.69-2.1
					c-18.92,6.57-38.24,11.92-57.74,16.48c-19.53,4.57-39.23,8.36-58.98,11.87c-9.97,1.77-19.94,3.56-29.94,5.11
					c-9.9,1.53-19.91,2.64-29.94,2.32c-16.19-0.51-33.64-5.32-44.18-18.42c-2.15-2.68-3.98-5.91-5.02-8.91
					c-1.19-3.43-1.72-6.42-1.78-9.87c-0.06-3.51,0.3-6.25,1.39-9.63c0.9-2.82,2.55-5.9,4.46-8.08c0.53-0.61,1.1-1.19,1.69-1.74
					c0.65-0.61,1.14-1.01,1.68-1.4c-1.5-0.86-3.01-1.73-4.51-2.59c-1.18,11.24,4.6,22.62,14.08,28.64c1.67,1.06,3.88,0,4.41-1.79
					c4.93-16.67,9.86-33.34,14.79-50.01c1.41-4.76,2.82-9.53,4.22-14.29c-1.96-0.27-3.93-0.53-5.89-0.8
					c0.9,13.18,5.24,25.97,12.29,37.13c7.04,11.14,16.64,20.69,27.89,27.57c5.65,3.46,11.75,6.23,18.08,8.18
					c7.35,2.26,15.05,3.26,22.73,3.47c8.88,0.25,17.75-0.54,26.58-1.44c8.89-0.91,17.76-1.95,26.62-3.13
					c17.82-2.38,35.56-5.29,53.19-8.78c2.17-0.43,4.34-0.87,6.51-1.31c1.59-0.33,2.5-2.2,2.1-3.69
					C758.39,338,756.75,337.23,755.15,337.56L755.15,337.56z"/>
			</g>
		</g>
		<g>
			<g>
				<path d="M953.97,270.32c0.17,0.25,0.16,0.22-0.01-0.07c0.11,0.13,0.15,0.28,0.13,0.46c-0.02-0.19-0.02-0.37,0-0.56
					c-0.04,0.33-0.02,0.32,0.06-0.03c-0.14,0.28-0.12,0.26,0.04-0.06c0.19-0.3,0.2-0.31,0.04-0.05c-0.26,0.16-0.25,0.16,0.05-0.03
					c-0.3,0.11-0.27,0.12,0.07,0.02c-0.97-0.26-1.95-0.51-2.92-0.77c11.81,14.02,22.74,28.76,32.74,44.12
					c2.87,4.41,5.66,8.88,8.38,13.39c1.13,1.88,4.08,2.01,5.18,0c7.95-14.49,14.68-29.66,20.07-45.28
					c1.53-4.45,2.96-8.93,4.27-13.45c-1.83,0.24-3.66,0.48-5.48,0.72c3.27,7.16,4.65,15.08,5.27,22.89
					c0.6,7.64,1.01,15.63-0.18,23.23c-1.09,6.9-3.75,13.4-8.37,18.43c-4.25,4.63-9.42,7.94-15.1,10.72
					c-6.55,3.21-13.59,5.51-20.64,7.69c-3.68,1.14-2.11,6.93,1.6,5.79c13.11-4.07,27.06-8.71,37.05-18.58
					c5.4-5.33,9.05-12.08,10.69-19.48c1.81-8.2,1.64-16.76,1.15-25.1c-0.59-9.84-2.16-19.6-6.28-28.62
					c-1.12-2.46-4.81-1.58-5.48,0.72c-4.51,15.45-10.29,30.51-17.35,44.97c-2.03,4.16-4.17,8.26-6.39,12.32c1.73,0,3.45,0,5.18,0
					c-9.73-16.14-20.46-31.65-32.09-46.47c-3.25-4.14-6.58-8.22-9.97-12.25c-0.69-0.82-1.94-1.01-2.92-0.77
					c-4.6,1.1-5.99,6.97-3.01,10.35c1.07,1.22,3.15,1.1,4.24,0C955.18,273.35,955.05,271.54,953.97,270.32L953.97,270.32z"/>
			</g>
		</g>
		<g>
			<g>
				<path d="M948.73,274.88c9.27-11.29,19.17-23.22,32.66-29.57c7.19-3.38,15.16-4.32,23.08-3.51c4.41,0.45,8.8,1.41,13.05,2.64
					c3.86,1.11,7.6,2.61,10.85,5.02c5.49,4.05,9.09,10.43,10.83,16.97c2.06,7.76,1.44,16.08-0.56,23.91
					c-3.73,14.65-11.42,28.57-21,40.22c-9.35,11.38-20.78,20.98-33.71,28.05c-1.58,0.87-3.19,1.69-4.81,2.49
					c-1.46,0.71-1.85,2.78-1.08,4.1c0.87,1.49,2.64,1.79,4.1,1.08c14.01-6.85,26.65-16.56,36.97-28.24
					c10.65-12.05,19.14-26.29,24.02-41.65c2.79-8.79,4.13-18.11,2.72-27.28c-1.18-7.7-4.58-15.22-9.95-20.9
					c-6.17-6.53-14.75-9.38-23.34-11.16c-9.15-1.89-18.69-2.33-27.7,0.49c-15.2,4.75-26.69,16.72-36.66,28.57
					c-1.26,1.5-2.51,3-3.75,4.52c-1.03,1.25-1.22,3.02,0,4.24C945.55,275.94,947.7,276.14,948.73,274.88L948.73,274.88z"/>
			</g>
		</g>
		<ellipse class="st3" cx="275.81" cy="428.63" rx="120.76" ry="25.42"/>
		<path class="st4" d="M396.56,428.63c0,54.41-54.06,114.4-120.76,114.4s-120.76-59.99-120.76-114.4
			c0-12.71,54.06-25.42,120.76-25.42C282.16,403.21,396.56,409.56,396.56,428.63z"/>
		<g>
			<path d="M250.74,325.71c0.5-0.33,0.81-0.87,0.85-1.39l0.45,0.2c-1.66,3.16-3.22,6.34-4.64,9.56c-2.86,6.68-5.52,11.27,0.57,17.1
				c2.45,2.51,5.31,5.27,7.21,8.36c8.42,12.53,7.16,30.84-3.93,41.26c7.11-11.98,7.37-27.05-0.25-38.54
				c-5.74-8.53-15.25-12.93-8.75-24.78c2.82-5.14,6.22-9.92,10.23-14.16C252.15,324.28,251.82,325.46,250.74,325.71L250.74,325.71z"
				/>
		</g>
		<g>
			<path d="M276,324.12c0.5-0.33,0.81-0.87,0.85-1.39l0.45,0.2c-1.66,3.16-3.22,6.34-4.64,9.56c-2.86,6.68-5.52,11.27,0.57,17.1
				c2.45,2.51,5.31,5.27,7.21,8.36c8.42,12.53,7.16,30.84-3.93,41.26c7.11-11.98,7.37-27.05-0.25-38.54
				c-5.74-8.53-15.25-12.93-8.75-24.78c2.82-5.14,6.22-9.92,10.23-14.16C277.42,322.69,277.08,323.87,276,324.12L276,324.12z"/>
		</g>
		<g>
			<path d="M301.42,324.12c0.5-0.33,0.81-0.87,0.85-1.39l0.45,0.2c-1.66,3.16-3.22,6.34-4.64,9.56c-2.86,6.68-5.52,11.27,0.57,17.1
				c2.45,2.51,5.31,5.27,7.21,8.36c8.42,12.53,7.16,30.84-3.93,41.26c7.11-11.98,7.37-27.05-0.25-38.54
				c-5.74-8.53-15.25-12.93-8.75-24.78c2.82-5.14,6.22-9.92,10.23-14.16C302.84,322.69,302.51,323.87,301.42,324.12L301.42,324.12z"
				/>
		</g>
		<path class="st3" d="M202.42,432.25c13.67-5.7,29.06-5.67,43.75-3.79c14.69,1.88,29.14,5.5,43.9,6.7
			c24.85,2.01,49.69-2.89,74.06-8.1"/>
		<line class="st4" x1="75.05" y1="562.78" x2="455.05" y2="562.78"/>
		<g>
			<g>
				<path d="M447.59,623.08c-0.04-0.02-0.09-0.04-0.13-0.06c-1.24-0.58-2.61-0.52-3.64,0.47c-1.5,1.45-1.32,4.06,0.48,5.18
					c1.72,1.07,3.89,0.26,4.87-1.42c0.76-1.31,1.21-2.93,1.78-4.33c0.63-1.57,1.27-3.14,1.9-4.71c-1.67,0.44-3.34,0.88-5.01,1.32
					c5.57,7.14,16.17,9.24,24.2,5.32c1.84-0.9,2.98-1.86,4.77-0.48c1.85,1.43,2.78,3.81,4.11,5.68c2.61,3.67,6.41,6.28,10.78,7.39
					c4.87,1.24,10.16,0.66,14.51-1.91c3.32-1.96,0.31-7.15-3.03-5.18c-2.95,1.74-6.48,2.14-9.72,1.35
					c-3.59-0.87-6.27-2.88-8.21-5.97c-1.31-2.08-2.55-4.27-4.48-5.83c-2.15-1.74-4.85-2.73-7.62-2.07c-2.16,0.52-3.9,1.9-5.8,2.46
					c-1.81,0.53-3.27,0.66-5.3,0.49c-1.56-0.13-3.71-0.74-5.21-1.52c-1.96-1.02-3.34-2.17-4.75-3.98c-0.64-0.81-1.99-1.03-2.92-0.77
					c-1.1,0.3-1.69,1.09-2.1,2.1c-0.57,1.42-1.15,2.84-1.72,4.26c-0.27,0.67-0.54,1.34-0.81,2.02c-0.12,0.3-0.25,0.6-0.36,0.9
					c-0.45,1.17-0.13,0.27-0.08,0.23c0.44-0.26,0.88-0.51,1.32-0.77c-0.08,0.01-0.17,0.03-0.25,0.04c0.77,0.1,1.54,0.2,2.31,0.3
					c-0.05-0.03-0.1-0.06-0.15-0.1c0.46,0.6,0.92,1.2,1.38,1.79c-0.01-0.06-0.02-0.12-0.03-0.18c0,0.53,0,1.06,0,1.6
					c0.02-0.06,0.03-0.12,0.05-0.18c-0.26,0.44-0.51,0.88-0.77,1.32c0.04-0.03,0.07-0.07,0.11-0.1c-1.21,0.16-2.42,0.31-3.64,0.47
					c0.04,0.02,0.09,0.04,0.13,0.06c1.47,0.69,3.23,0.41,4.1-1.08C449.43,625.88,449.07,623.77,447.59,623.08L447.59,623.08z"/>
			</g>
		</g>
		<g>
			<g>
				<path d="M371.8,698.88c2.42-0.67,4.82,0.87,6.65,2.5c2.2,1.97,4.12,4.31,5.86,6.69c3.7,5.02,6.84,10.43,10.6,15.4
					c3.65,4.82,7.89,9.24,13.15,12.32c2.42,1.42,5.09,2.56,7.84,3.17c1.44,0.32,2.93,0.52,4.4,0.58c0.7,0.03,1.4,0,2.11-0.03
					c0.24-0.01,0.49,0,0.73-0.02c0.39,0.02,0.48,0.02,0.26,0c-0.16-0.12-0.3-0.26-0.41-0.44c0.46,0.18,0.38,2.62,0.39,3.26
					c0.02,1.59-0.09,3.19-0.33,4.76c-0.51,3.42-1.39,6.77-2.05,10.16c-1.11,5.68-1.68,11.93,0.51,17.43
					c2.1,5.27,6.25,8.61,11.32,10.89c2.27,1.02,4.75,1.94,6.77,2.85c1.07,0.48,2.13,1,3.14,1.59c1.07,0.63,1.81,1.14,2.58,1.85
					c1.07,0.99,1.86,2.16,2.75,3.29c1.12,1.42,2.46,2.54,4.17,3.17c3.26,1.22,6.81,0.02,9.67-1.64c2.68-1.55,4.63-3.64,7.44-4.91
					c0.95-0.43,2.23-0.71,3.12-0.76c0.86-0.05,1.19,0.14,1.9,1.03c1.01,1.27,3.19,1.05,4.24,0c1.26-1.26,1.01-2.97,0-4.24
					c-3.77-4.76-10.82-2.57-15,0.35c-2.2,1.53-4.27,3.51-6.86,4.35c-0.95,0.31-1.87,0.46-2.54,0.18c-1.06-0.45-1.69-1.53-2.36-2.42
					c-3.38-4.51-8.18-6.66-13.26-8.74c-4.18-1.7-8.71-3.49-10.98-7.81c-2.48-4.71-1.71-10.72-0.66-15.81c0.7-3.38,1.53-6.74,2-10.16
					c0.45-3.24,0.87-7.04-0.14-10.22c-0.54-1.73-1.76-3.15-3.51-3.71c-1.51-0.49-3.08-0.22-4.63-0.25
					c-2.41-0.05-4.93-0.66-7.19-1.69c-5.19-2.35-9.46-6.4-12.95-10.83c-4.33-5.49-7.72-11.65-11.97-17.21
					c-4.24-5.55-10.48-12.91-18.38-10.73C366.48,694.12,368.06,699.91,371.8,698.88L371.8,698.88z"/>
			</g>
		</g>
		<g>
			<g>
				<path d="M427.35,624.74c-4.06-12.72-15.79-20.83-27.93-24.95c-14.07-4.77-29.29-5.02-43.17-10.47
					c-6.32-2.48-12.54-6.26-16.72-11.72c-0.9-1.17-2.68-2.14-4.1-1.08c-5.1,3.83-11.2,5.22-17.42,6.35
					c-6.47,1.18-12.96,2.13-19.04,4.78c-6.28,2.74-11.29,7.6-16.01,12.44c-4.76,4.89-9.48,9.54-15.4,13.03
					c-6.96,4.1-14.59,6.82-22.17,9.52c-1.89,0.67-2.72,2.59-1.79,4.41c2.97,5.8,8.23,10.23,14.13,12.87
					c6.86,3.07,14.3,3.97,21.77,3.7c8.23-0.3,16.42-1.69,24.57-2.77c7.82-1.03,15.68-1.92,23.47-3.2
					c8.03-1.32,16.09-3.45,22.95-7.98c1.35-0.89,1.93-2.65,1.08-4.1c-0.79-1.34-2.75-1.97-4.1-1.08c-5.61,3.7-12.02,5.6-18.57,6.85
					c-7.08,1.35-14.27,2.11-21.41,3.05c-7.77,1.03-15.55,2.26-23.37,2.93c-7.07,0.61-14.32,0.59-21.11-1.73
					c-5.96-2.04-11.32-5.9-14.23-11.58c-0.6,1.47-1.2,2.94-1.79,4.41c6.93-2.46,13.89-4.96,20.43-8.37
					c6.47-3.37,12.02-7.8,17.12-12.98c4.6-4.68,9.05-9.75,14.87-12.97c5.56-3.07,12.08-4.03,18.3-5.11
					c7.25-1.27,14.75-2.78,20.76-7.3c-1.37-0.36-2.74-0.72-4.1-1.08c8.44,11,21.72,15.89,34.88,18.63
					c13.82,2.88,28.61,4.08,40.53,12.2c5.34,3.64,9.85,8.73,11.81,14.87c0.49,1.54,2.08,2.54,3.69,2.1
					C426.77,628.01,427.84,626.29,427.35,624.74L427.35,624.74z"/>
			</g>
		</g>
		<g>
			<g>
				<path d="M267.55,613.35c-20.52-4.53-41.45-9.1-60.31-18.68c-4.73-2.4-9.3-5.1-13.64-8.14c-4.22-2.95-8.24-6.2-12.68-8.82
					c-4.77-2.81-9.88-4.63-15.42-5.12c-5.79-0.51-11.63,0.43-17.3,1.52c-13.36,2.58-26.68,5.41-40.01,8.11
					c-2,0.41-2.62,2.8-1.79,4.41c5,9.74,16,13.64,22.31,22.21c6.69,9.09,8.48,20.71,13.27,30.75c8.54,17.9,26.37,30.65,45.54,34.83
					c10.89,2.38,22.38,2.12,33.01-1.38c1.54-0.51,2.54-2.07,2.1-3.69c-0.41-1.51-2.14-2.6-3.69-2.1
					c-17.7,5.83-37.31,2.04-52.66-8.52c-7.49-5.15-13.91-12.16-18.2-20.34c-5.04-9.61-6.77-20.65-12.45-29.97
					c-3.22-5.29-7.66-9.2-12.5-12.96c-4.43-3.43-8.99-6.87-11.55-11.85c-0.6,1.47-1.2,2.94-1.79,4.41
					c11.78-2.39,23.56-4.78,35.33-7.18c5.43-1.1,10.89-2.29,16.45-2.38c5.29-0.08,10.24,1.09,14.89,3.62
					c4.4,2.4,8.37,5.5,12.42,8.42c4.17,3.01,8.52,5.74,13.06,8.16c9.35,4.99,19.32,8.78,29.45,11.86
					c11.37,3.46,22.98,6.05,34.58,8.61c1.58,0.35,3.25-0.48,3.69-2.1C270.06,615.54,269.14,613.7,267.55,613.35L267.55,613.35z"/>
			</g>
		</g>
		<g>
			<g>
				<path d="M221.51,673.41c2.32,1.1,3.9,2.98,5.34,5.02c1.71,2.44,3.28,5.03,5.36,7.19c2.29,2.37,5.15,3.93,8.43,4.35
					c3.52,0.46,7.02-0.46,10.36-1.49c3.63-1.12,7.08-2.38,10.83-1.97c-0.96-0.73-1.93-1.47-2.89-2.2c2.8,7.61,3.56,15.84,1.95,23.81
					c-0.37,1.86,0.83,3.84,2.89,3.8c17.75-0.35,35.29-5.31,50.58-14.34c-1.5-0.86-3.01-1.73-4.51-2.59
					c-0.38,4.55,3.47,7.36,6.52,9.99c0.3,0.26,0.59,0.52,0.85,0.81c0.31,0.34-0.22-0.34,0.04,0.05c0.11,0.16,0.21,0.31,0.3,0.48
					c0.1,0.16,0.18,0.33,0.27,0.5c0.22,0.43-0.13-0.38,0.04,0.07c0.15,0.4,0.25,0.8,0.34,1.21c0.07,0.3,0.01,0.3,0,0
					c0,0.17,0,0.35,0.02,0.52c0.03,0.33,0.04,0.22,0.04-0.06c0,0.15-0.08,0.31-0.11,0.46c0.08-0.37,0.24-0.27-0.02,0
					c-0.2,0.21,0.22-0.23,0.27-0.27c0.27-0.22-0.23,0,0.09-0.03c0.41-0.03-0.31,0.06-0.35,0.07c-2.83,0.58-2.9,5.25,0,5.79
					c7.11,1.3,14.65-2.03,18.05-8.52c-1.73,0-3.45,0-5.18,0c3.72,6.35,10.4,10.85,17.69,11.9c7.45,1.08,14.86-1.43,20.28-6.64
					c3.02-2.9,5.25-6.56,6.47-10.56c1.12-3.7-4.66-5.29-5.79-1.6c-2.03,6.67-8.3,12.06-15.07,12.97
					c-7.25,0.97-14.72-2.79-18.41-9.09c-1.1-1.88-4.12-2.02-5.18,0c-1.15,2.19-2.72,3.68-4.94,4.8c-1.87,0.94-4.41,1.32-6.34,0.97
					c0,1.93,0,3.86,0,5.79c5.18-1.07,5.15-7.3,3.13-11.04c-1.05-1.95-2.78-3.19-4.42-4.6c-0.4-0.34-0.79-0.69-1.16-1.05
					c-0.2-0.2-0.4-0.4-0.59-0.61c-0.07-0.07-0.47-0.57-0.26-0.28c-0.16-0.21-0.29-0.44-0.42-0.67c-0.26-0.46,0.19,0.59-0.13-0.27
					c-0.05-0.15-0.13-0.44-0.08-0.11c-0.05-0.31-0.01-0.65,0.01-0.96c0.19-2.32-2.68-3.68-4.51-2.59
					c-14.39,8.5-30.84,13.2-47.55,13.52c0.96,1.27,1.93,2.53,2.89,3.8c1.81-8.99,1.22-18.37-1.95-27c-0.51-1.37-1.47-2.05-2.89-2.2
					c-3.4-0.37-6.81,0.47-10.04,1.45c-2.96,0.9-6.1,2.09-8.99,2.15c-2.65,0.06-4.58-0.91-6.34-2.73c-1.78-1.85-3.05-4.05-4.7-6.37
					c-1.94-2.71-4.14-5.33-7.21-6.79c-1.46-0.69-3.24-0.41-4.1,1.08C219.67,670.61,220.04,672.72,221.51,673.41L221.51,673.41z"/>
			</g>
		</g>
		<g>
			<g>
				<path d="M446.79,625.73c-1.81-1.18-3.31-2.98-4.16-4.92c-0.66-1.49-1.17-2.92-2.46-4c-1.22-1.02-2.72-1.54-4.31-1.55
					c-2.77-0.02-5.19,1.38-7.53,2.68c-0.23,0.13-0.47,0.25-0.71,0.37c-0.09,0.05-0.67,0.29-0.33,0.16
					c-0.55,0.21-1.12,0.39-1.69,0.49c-0.22,0.04-0.2,0.04,0.04,0c-0.1,0.01-0.2,0.01-0.3,0.02c-0.27-0.02-0.78,0.14-0.34,0
					c-0.3-0.1-0.35-0.11-0.16-0.02c0.19,0.09,0.14,0.06-0.14-0.09c0.28,0.41-0.16-0.21-0.24-0.31c-1.04-1.24-3.17-1.07-4.24,0
					c-1.23,1.23-1.04,2.99,0,4.24c1.93,2.31,5.19,2.54,7.9,1.72c1.33-0.4,2.59-1.01,3.79-1.71c1.08-0.63,1.86-1.07,2.9-1.37
					c0.07-0.02,0.83-0.2,0.54-0.15c-0.19,0.03,0.54-0.02,0.67-0.02c0.22,0.01,0.2,0-0.07-0.02c0.09,0.02,0.19,0.05,0.28,0.07
					c-0.59-0.36,0.41,0.31-0.06-0.07c0.79,0.64,1.06,2.18,1.58,3.19c1.38,2.66,3.52,4.86,6.03,6.48c1.36,0.88,3.31,0.27,4.1-1.08
					C448.72,628.38,448.15,626.62,446.79,625.73L446.79,625.73z"/>
			</g>
		</g>
		<g>
			<g>
				<path d="M386.29,694.73c7.21-10.08,14.43-20.16,21.64-30.24c-1.57,0.2-3.14,0.4-4.71,0.61c4.25,4.44,9,8.39,14.11,11.8
					c1.58,1.06,3.98,0.02,4.41-1.79c2.77-11.76,10.29-22.1,20.71-28.29c-1.21-1.57-2.42-3.14-3.64-4.71
					c-1.66,1.99-3.91,3.11-6.13,3.32c-2.56,0.24-5.03-0.31-6.76-1.76c-1.15-0.96-1.65-1.68-2.29-3.01
					c-0.35-0.74-0.77-2.43-0.82-3.22c-0.1-1.58-0.03-2.32,0.39-3.75c0.09-0.31,0.19-0.63,0.32-0.93c-0.15,0.35,0.25-0.49,0.24-0.47
					c0.33-0.62,0.76-1.23,1.03-1.54c1.06-1.22,1.2-3.04,0-4.24c-1.09-1.09-3.17-1.23-4.24,0c-5.2,5.98-5.09,16.09,1.13,21.41
					c6.08,5.19,16.15,4.66,21.37-1.57c0.96-1.14,1.22-2.71,0.23-3.94c-0.92-1.15-2.56-1.55-3.87-0.77
					c-11.69,6.94-20.34,18.64-23.47,31.88c1.47-0.6,2.94-1.2,4.41-1.79c-4.7-3.14-8.99-6.78-12.9-10.86
					c-1.44-1.5-3.62-0.91-4.71,0.61c-7.21,10.08-14.43,20.16-21.64,30.24c-0.94,1.32-0.23,3.34,1.08,4.1
					C383.7,696.69,385.35,696.05,386.29,694.73L386.29,694.73z"/>
			</g>
		</g>
	</g>
</g>
</svg>
